<?xml version="1.0" encoding="UTF-8"?>
<!DOCTYPE svg PUBLIC "-//W3C//DTD SVG 1.1//EN" "http://www.w3.org/Graphics/SVG/1.1/DTD/svg11.dtd">
<svg xmlns="http://www.w3.org/2000/svg" version="1.1" width="200px" height="200px" style="shape-rendering:geometricPrecision; text-rendering:geometricPrecision; image-rendering:optimizeQuality; fill-rule:evenodd; clip-rule:evenodd" xmlns:xlink="http://www.w3.org/1999/xlink">
<g><path style="opacity:1" fill="#fefefe" d="M -0.5,-0.5 C 66.1667,-0.5 132.833,-0.5 199.5,-0.5C 199.5,66.1667 199.5,132.833 199.5,199.5C 132.833,199.5 66.1667,199.5 -0.5,199.5C -0.5,132.833 -0.5,66.1667 -0.5,-0.5 Z"/></g>
<g><path style="opacity:1" fill="#ff1d13" d="M 103.5,66.5 C 103.5,66.1667 103.5,65.8333 103.5,65.5C 114.222,65.1254 124.889,65.6254 135.5,67C 141.626,68.56 146.959,71.3934 151.5,75.5C 155.262,77.4127 158.929,79.5794 162.5,82C 165.553,82.1786 168.553,82.6786 171.5,83.5C 169.064,85.5526 169.398,87.386 172.5,89C 169.271,87.8779 166.271,88.3779 163.5,90.5C 163.167,90.3333 162.833,90.1667 162.5,90C 163.5,89 164.5,88 165.5,87C 146.167,86.3333 126.833,86.3333 107.5,87C 109.95,89.3887 111.117,92.222 111,95.5C 107.024,88.7639 101.191,86.2639 93.5,88C 87.9389,90.5617 84.1055,94.7284 82,100.5C 82.1129,95.1047 84.2796,90.6047 88.5,87C 82.9902,87.7628 77.6569,89.0961 72.5,91C 75.6945,89.3054 78.0278,86.8054 79.5,83.5C 79.1373,82.8165 78.8039,82.1499 78.5,81.5C 85.9818,80.508 93.6484,80.1746 101.5,80.5C 105.555,80.8242 109.555,80.4909 113.5,79.5C 116.167,75.8333 118.833,72.1667 121.5,68.5C 120.624,67.7492 119.624,67.2492 118.5,67C 113.511,66.5007 108.511,66.3341 103.5,66.5 Z"/></g>
<g><path style="opacity:1" fill="#ff7d7a" d="M 103.5,65.5 C 103.5,65.8333 103.5,66.1667 103.5,66.5C 99.6013,67.7606 95.6013,68.2606 91.5,68C 95.4964,67.0569 99.4964,66.2236 103.5,65.5 Z"/></g>
<g><path style="opacity:1" fill="#fff6f5" d="M 151.5,75.5 C 153.327,76.9319 154.994,78.5986 156.5,80.5C 143.167,81.8333 129.833,81.8333 116.5,80.5C 119.473,76.0596 122.806,71.8929 126.5,68C 130.913,67.849 135.246,68.5157 139.5,70C 143.402,72.1189 147.402,73.9523 151.5,75.5 Z"/></g>
<g><path style="opacity:1" fill="#ff453c" d="M 98.5,71.5 C 101.907,71.1253 102.407,72.1253 100,74.5C 98.9614,73.7562 98.4614,72.7562 98.5,71.5 Z"/></g>
<g><path style="opacity:1" fill="#ff473b" d="M 164.5,74.5 C 167.684,77.6977 167.017,79.0311 162.5,78.5C 162.527,76.8007 163.194,75.4674 164.5,74.5 Z"/></g>
<g><path style="opacity:1" fill="#ff2117" d="M 124.5,76.5 C 128.219,76.0025 131.553,76.8358 134.5,79C 130.459,79.8265 126.459,79.6599 122.5,78.5C 123.243,77.8182 123.909,77.1515 124.5,76.5 Z"/></g>
<g><path style="opacity:1" fill="#ff5f5a" d="M 66.5,80.5 C 78.1667,79.1667 89.8333,79.1667 101.5,80.5C 93.6484,80.1746 85.9818,80.508 78.5,81.5C 76.5,81.5 74.5,81.5 72.5,81.5C 70.7354,80.5386 68.7354,80.2053 66.5,80.5 Z"/></g>
<g><path style="opacity:1" fill="#ff150d" d="M 66.5,80.5 C 68.7354,80.2053 70.7354,80.5386 72.5,81.5C 65.3896,83.889 58.3896,86.5557 51.5,89.5C 43.3159,89.8257 35.3159,89.4924 27.5,88.5C 29.6038,86.9013 31.6038,85.068 33.5,83C 44.4402,81.3539 55.4402,80.5206 66.5,80.5 Z"/></g>
<g><path style="opacity:1" fill="#ff4342" d="M 27.5,88.5 C 35.3159,89.4924 43.3159,89.8257 51.5,89.5C 43.0099,90.6569 34.3433,90.8236 25.5,90C 26.0442,89.2828 26.7109,88.7828 27.5,88.5 Z"/></g>
<g><path style="opacity:1" fill="#ff3b38" d="M 111.5,88.5 C 115.514,88.3345 119.514,88.5012 123.5,89C 119.579,89.203 115.745,89.703 112,90.5C 111.536,89.9056 111.369,89.2389 111.5,88.5 Z"/></g>
<g><path style="opacity:1" fill="#5c5656" d="M 8.5,107.5 C 9.91866,106.549 11.5853,106.216 13.5,106.5C 14.4511,115.591 16.1178,115.757 18.5,107C 19.8333,106.333 21.1667,106.333 22.5,107C 20.9358,111.19 19.2691,115.356 17.5,119.5C 16.1667,120.833 14.8333,120.833 13.5,119.5C 12.1981,115.237 10.5314,111.237 8.5,107.5 Z"/></g>
<g><path style="opacity:1" fill="#5e4646" d="M 33.5,106.5 C 34.5,106.5 35.5,106.5 36.5,106.5C 36.5,111.167 36.5,115.833 36.5,120.5C 35.5,120.5 34.5,120.5 33.5,120.5C 33.5,115.833 33.5,111.167 33.5,106.5 Z"/></g>
<g><path style="opacity:1" fill="#873535" d="M 88.5,106.5 C 89.8333,106.5 91.1667,106.5 92.5,106.5C 92.5,111.167 92.5,115.833 92.5,120.5C 91.1667,120.5 89.8333,120.5 88.5,120.5C 88.5,115.833 88.5,111.167 88.5,106.5 Z"/></g>
<g><path style="opacity:1" fill="#af3836" d="M 121.5,106.5 C 124.518,106.335 127.518,106.502 130.5,107C 133.265,109.966 132.932,112.633 129.5,115C 130.376,116.586 131.376,118.086 132.5,119.5C 131.277,120.614 129.944,120.781 128.5,120C 126.332,115.301 125.332,115.468 125.5,120.5C 124.167,120.5 122.833,120.5 121.5,120.5C 121.5,115.833 121.5,111.167 121.5,106.5 Z"/></g>
<g><path style="opacity:1" fill="#e62c28" d="M 176.5,106.5 C 177.833,106.5 179.167,106.5 180.5,106.5C 180.5,111.167 180.5,115.833 180.5,120.5C 179.167,120.5 177.833,120.5 176.5,120.5C 176.5,115.833 176.5,111.167 176.5,106.5 Z"/></g>
<g><path style="opacity:1" fill="#7d4746" d="M 67.5,107.5 C 68.5,107.5 69.5,107.5 70.5,107.5C 70.3285,109.492 70.9951,111.158 72.5,112.5C 70.777,114.868 70.1103,117.534 70.5,120.5C 69.1667,120.5 67.8333,120.5 66.5,120.5C 66.702,118.05 66.3686,115.717 65.5,113.5C 66.7196,111.718 67.3862,109.718 67.5,107.5 Z"/></g>
<g><path style="opacity:1" fill="#cf2927" d="M 161.5,107.5 C 161.328,109.492 161.995,111.158 163.5,112.5C 161.777,114.868 161.11,117.534 161.5,120.5C 160.167,120.5 158.833,120.5 157.5,120.5C 157.5,118.5 157.5,116.5 157.5,114.5C 157.196,113.85 156.863,113.183 156.5,112.5C 158.005,111.158 158.672,109.492 158.5,107.5C 159.5,107.5 160.5,107.5 161.5,107.5 Z"/></g>
<g><path style="opacity:1" fill="#f6e6e6" d="M 125.5,109.5 C 126.5,109.5 127.5,109.5 128.5,109.5C 128.5,110.5 128.5,111.5 128.5,112.5C 127.5,112.5 126.5,112.5 125.5,112.5C 125.5,111.5 125.5,110.5 125.5,109.5 Z"/></g>
<g><path style="opacity:1" fill="#bea0a0" d="M 70.5,107.5 C 71.404,108.209 71.7373,109.209 71.5,110.5C 73.7354,110.205 75.7354,110.539 77.5,111.5C 76.1266,111.343 74.7932,111.51 73.5,112C 74.2524,112.671 74.5858,113.504 74.5,114.5C 73.5,114.5 72.5,114.5 71.5,114.5C 71.7947,116.735 71.4614,118.735 70.5,120.5C 70.1103,117.534 70.777,114.868 72.5,112.5C 70.9951,111.158 70.3285,109.492 70.5,107.5 Z"/></g>
<g><path style="opacity:1" fill="#6e6060" d="M 24.5,110.5 C 31.3692,110.681 33.3692,114.015 30.5,120.5C 21.2158,121.243 19.2158,117.91 24.5,110.5 Z"/></g>
<g><path style="opacity:1" fill="#734e4e" d="M 41.5,110.5 C 44.9612,110.146 47.4612,111.479 49,114.5C 50.9066,110.99 53.7399,109.824 57.5,111C 58.4506,111.718 58.6172,112.551 58,113.5C 56.4905,114.09 54.9905,114.756 53.5,115.5C 54.9358,116.934 56.6025,118.1 58.5,119C 54.9931,121.304 51.9931,120.804 49.5,117.5C 47.0669,120.242 44.0669,121.075 40.5,120C 37.6361,116.376 37.9694,113.209 41.5,110.5 Z"/></g>
<g><path style="opacity:1" fill="#703d3d" d="M 60.5,111.5 C 61.5,111.5 62.5,111.5 63.5,111.5C 63.5,114.5 63.5,117.5 63.5,120.5C 62.5,120.5 61.5,120.5 60.5,120.5C 60.5,117.5 60.5,114.5 60.5,111.5 Z"/></g>
<g><path style="opacity:1" fill="#aa8a8a" d="M 67.5,107.5 C 67.3862,109.718 66.7196,111.718 65.5,113.5C 64.8333,115.833 64.1667,118.167 63.5,120.5C 63.5,117.5 63.5,114.5 63.5,111.5C 62.5,111.5 61.5,111.5 60.5,111.5C 61.0715,110.027 61.0715,108.36 60.5,106.5C 61.5,106.5 62.5,106.5 63.5,106.5C 63.67,107.822 63.3366,108.989 62.5,110C 63.7932,110.49 65.1266,110.657 66.5,110.5C 66.2627,109.209 66.596,108.209 67.5,107.5 Z"/></g>
<g><path style="opacity:1" fill="#844443" d="M 77.5,111.5 C 77.3691,112.376 77.7025,113.043 78.5,113.5C 79.8544,111.816 81.5211,111.316 83.5,112C 82.0047,115.817 80.5047,119.65 79,123.5C 77.9887,124.337 76.8221,124.67 75.5,124.5C 77.11,120.951 76.7766,117.617 74.5,114.5C 74.5858,113.504 74.2524,112.671 73.5,112C 74.7932,111.51 76.1266,111.343 77.5,111.5 Z"/></g>
<g><path style="opacity:1" fill="#994341" d="M 94.5,110.5 C 102.833,108.833 106.167,112.167 104.5,120.5C 103.167,120.5 101.833,120.5 100.5,120.5C 99.8333,112.5 99.1667,112.5 98.5,120.5C 97.1667,120.5 95.8333,120.5 94.5,120.5C 94.5,117.167 94.5,113.833 94.5,110.5 Z"/></g>
<g><path style="opacity:1" fill="#9c3434" d="M 106.5,106.5 C 107.5,106.5 108.5,106.5 109.5,106.5C 109.336,109.187 109.503,111.854 110,114.5C 111.258,111.945 113.091,111.278 115.5,112.5C 113.057,115.195 113.39,117.695 116.5,120C 113.196,121.042 111.029,119.875 110,116.5C 109.51,117.793 109.343,119.127 109.5,120.5C 108.5,120.5 107.5,120.5 106.5,120.5C 106.5,115.833 106.5,111.167 106.5,106.5 Z"/></g>
<g><path style="opacity:1" fill="#c14842" d="M 136.5,110.5 C 143.649,110.703 145.315,113.869 141.5,120C 133.03,120.531 131.364,117.364 136.5,110.5 Z"/></g>
<g><path style="opacity:1" fill="#c62d2b" d="M 154.5,113.5 C 154.5,115.833 154.5,118.167 154.5,120.5C 153.5,120.5 152.5,120.5 151.5,120.5C 151.5,118.5 151.5,116.5 151.5,114.5C 150.5,114.5 149.5,114.5 148.5,114.5C 148.5,116.5 148.5,118.5 148.5,120.5C 147.5,120.5 146.5,120.5 145.5,120.5C 145.5,117.5 145.5,114.5 145.5,111.5C 147.401,111.567 149.234,111.233 151,110.5C 152.95,110.707 154.116,111.707 154.5,113.5 Z"/></g>
<g><path style="opacity:1" fill="#dc2624" d="M 166.5,110.5 C 169.127,111.092 171.794,111.425 174.5,111.5C 174.5,114.5 174.5,117.5 174.5,120.5C 165.026,122.168 162.36,118.835 166.5,110.5 Z"/></g>
<g><path style="opacity:1" fill="#ede9e9" d="M 42.5,114.5 C 45.9571,114.667 46.2904,115.667 43.5,117.5C 42.6143,116.675 42.281,115.675 42.5,114.5 Z"/></g>
<g><path style="opacity:1" fill="#e38786" d="M 161.5,107.5 C 160.5,107.5 159.5,107.5 158.5,107.5C 158.672,109.492 158.005,111.158 156.5,112.5C 156.863,113.183 157.196,113.85 157.5,114.5C 155.94,116.156 154.94,118.156 154.5,120.5C 154.5,118.167 154.5,115.833 154.5,113.5C 156.294,111.572 157.294,109.238 157.5,106.5C 159.099,106.232 160.432,106.566 161.5,107.5 Z"/></g>
<g><path style="opacity:1" fill="#fad3d2" d="M 167.5,114.5 C 168.978,114.238 170.311,114.571 171.5,115.5C 169.537,118.194 168.203,117.861 167.5,114.5 Z"/></g>
<g><path style="opacity:1" fill="#f23c33" d="M 184.5,110.5 C 186.467,110.261 188.301,110.594 190,111.5C 190.507,112.996 190.007,114.163 188.5,115C 190.527,116.396 190.86,118.062 189.5,120C 186.621,120.874 183.955,120.54 181.5,119C 182.623,117.956 183.956,117.29 185.5,117C 182.023,115.268 181.69,113.101 184.5,110.5 Z"/></g>
</svg>
