<svg xmlns="http://www.w3.org/2000/svg" version="1.0" width="200.000000pt" height="200.000000pt" viewBox="0 0 200.000000 200.000000" preserveAspectRatio="xMidYMid meet">
<metadata fill="#ff0000">
Created by potrace 1.10, written by Peter Selinger 2001-2011
</metadata>
<g transform="translate(0.000000,200.000000) scale(0.100000,-0.100000)" fill="#ff0000" stroke="none">
<path d="M1067 1340 c-49 -5 -91 -10 -93 -12 -2 -3 50 -4 115 -4 66 1 122 -2 126 -6 4 -4 -12 -35 -36 -68 l-44 -61 -193 6 c-145 5 -242 3 -395 -10 l-203 -18 -44 -38 -45 -39 123 0 c122 0 123 0 230 44 134 54 154 59 177 42 18 -13 18 -15 2 -40 -10 -14 -31 -33 -48 -42 -55 -28 -24 -24 47 6 38 16 78 30 88 30 19 0 19 -1 -1 -22 -27 -30 -53 -82 -53 -105 1 -11 8 -5 20 18 55 105 180 132 249 53 17 -19 31 -30 31 -25 0 17 -23 61 -32 61 -4 0 -8 5 -8 10 0 6 104 10 291 10 l291 0 -26 -31 c-14 -17 -26 -36 -26 -42 1 -7 7 0 16 15 16 31 50 44 86 33 l23 -8 -20 23 c-14 16 -16 24 -7 27 26 9 11 20 -27 19 -30 0 -53 9 -107 45 -107 71 -154 96 -214 112 -73 20 -185 27 -293 17z m378 -69 c80 -38 134 -75 125 -84 -8 -8 -57 -10 -238 -9 l-174 2 33 43 c73 94 80 99 129 93 25 -3 81 -23 125 -45z" fill="#ff0000"/>
<path d="M1240 1215 c-11 -13 -4 -15 51 -15 58 1 62 2 45 15 -26 19 -80 19 -96 0z" fill="#ff0000"/>
<path d="M1627 1229 c3 -10 13 -17 23 -16 23 1 15 33 -9 33 -12 0 -17 -6 -14 -17z" fill="#ff0000"/>
<path d="M1120 1103 c0 -5 30 -7 67 -5 119 5 131 9 31 10 -54 1 -98 -1 -98 -5z" fill="#ff0000"/>
<path d="M168 935 c-5 -5 20 -136 27 -143 11 -11 37 11 50 43 17 39 20 105 5 105 -5 0 -10 -18 -10 -39 0 -22 -5 -52 -12 -68 -11 -27 -12 -26 -26 40 -14 62 -21 75 -34 62z" fill="#ff0000"/>
<path d="M374 865 c-1 -56 3 -75 13 -75 10 0 13 19 13 75 0 54 -4 75 -13 75 -9 0 -13 -21 -13 -75z" fill="#ff0000"/>
<path d="M910 865 c0 -60 3 -75 15 -75 12 0 15 15 15 75 0 60 -3 75 -15 75 -12 0 -15 -15 -15 -75z" fill="#ff0000"/>
<path d="M1080 865 c0 -43 4 -75 10 -75 6 0 10 14 10 32 0 34 15 29 22 -7 2 -11 11 -21 21 -23 18 -4 18 -3 1 23 -15 22 -15 30 -5 47 16 25 4 39 -13 15 -20 -26 -26 -21 -26 23 0 22 -4 40 -10 40 -6 0 -10 -32 -10 -75z" fill="#ff0000"/>
<path d="M1240 865 c0 -60 3 -75 15 -75 12 0 13 9 8 45 -4 30 -2 45 5 45 7 0 17 -20 23 -45 8 -32 16 -45 29 -45 17 0 17 3 -3 39 -21 39 -21 39 -2 61 19 22 19 22 0 36 -10 8 -31 14 -47 14 l-28 0 0 -75z" fill="#ff0000"/>
<path d="M1720 865 c0 -43 4 -75 10 -75 6 0 10 32 10 75 0 43 -4 75 -10 75 -6 0 -10 -32 -10 -75z" fill="#ff0000"/>
<path d="M680 897 c-18 -37 -3 -100 25 -105 12 -2 16 0 9 5 -6 4 -13 22 -16 40 -3 25 0 33 16 38 18 6 18 8 4 12 -9 2 -19 12 -21 21 -3 13 -7 11 -17 -11z" fill="#ff0000"/>
<path d="M1555 900 c-9 -25 -9 -45 1 -87 3 -16 12 -23 27 -23 20 1 20 2 5 11 -23 13 -25 69 -3 69 8 0 15 5 15 10 0 6 -6 10 -14 10 -8 0 -16 8 -18 18 -3 13 -6 12 -13 -8z" fill="#ff0000"/>
<path d="M285 866 c-23 -35 -5 -78 32 -74 14 2 29 10 31 18 5 13 3 13 -11 2 -9 -8 -21 -11 -27 -7 -17 10 -11 25 9 25 24 0 39 39 20 51 -23 14 -38 10 -54 -15z" fill="#ff0000"/>
<path d="M443 882 c-15 -10 -19 -32 -10 -64 10 -38 53 -39 67 -2 13 34 13 40 -6 58 -17 17 -33 20 -51 8z m37 -48 c0 -24 -4 -34 -12 -32 -15 5 -22 42 -14 64 10 25 26 5 26 -32z" fill="#ff0000"/>
<path d="M529 869 c-9 -18 -7 -26 9 -48 10 -14 27 -28 36 -29 15 -3 15 -1 -3 17 -22 22 -28 56 -11 66 6 3 13 -1 16 -10 5 -13 9 -14 15 -4 11 19 2 29 -26 29 -15 0 -29 -9 -36 -21z" fill="#ff0000"/>
<path d="M620 840 c0 -27 5 -50 10 -50 6 0 10 23 10 50 0 28 -4 50 -10 50 -5 0 -10 -22 -10 -50z" fill="#ff0000"/>
<path d="M742 843 c3 -41 6 -48 26 -51 25 -4 28 -12 10 -30 -8 -8 -8 -12 -1 -12 21 0 33 28 36 80 3 66 -20 83 -25 18 -4 -55 -22 -56 -26 0 -2 23 -8 42 -13 42 -6 0 -9 -21 -7 -47z" fill="#ff0000"/>
<path d="M970 839 c0 -33 4 -49 13 -49 7 0 12 14 12 37 0 27 4 38 15 38 11 0 15 -10 14 -37 -1 -26 3 -38 12 -38 18 0 19 76 2 87 -7 4 -25 8 -40 9 -27 2 -28 0 -28 -47z" fill="#ff0000"/>
<path d="M1355 870 c-28 -31 -10 -75 29 -75 17 0 31 6 34 15 4 12 2 13 -9 3 -18 -18 -39 -16 -39 2 0 8 6 15 14 15 7 0 19 7 26 15 10 12 10 18 0 30 -17 20 -33 19 -55 -5z" fill="#ff0000"/>
<path d="M1440 839 c0 -33 4 -49 13 -49 7 0 12 14 12 37 0 27 4 38 15 38 11 0 15 -10 14 -37 -1 -26 3 -38 12 -38 18 0 19 76 2 87 -7 4 -25 8 -40 9 -27 2 -28 0 -28 -47z" fill="#ff0000"/>
<path d="M1627 883 c-4 -3 -7 -13 -7 -22 0 -11 3 -10 15 5 13 16 16 17 24 4 8 -12 5 -17 -13 -23 -25 -8 -40 -32 -31 -48 3 -4 21 -8 40 -7 33 1 35 3 35 38 0 20 -5 41 -12 48 -13 13 -41 16 -51 5z" fill="#ff0000"/>
<path d="M1777 883 c-14 -13 -6 -41 16 -56 12 -8 19 -18 15 -22 -4 -4 -14 -2 -22 4 -8 7 -17 8 -20 3 -8 -13 4 -22 31 -22 33 0 42 29 15 51 -22 17 -29 39 -14 39 4 0 13 -5 20 -12 9 -9 12 -8 12 5 0 17 -39 25 -53 10z" fill="#ff0000"/>
</g>
</svg>